HIERARCHY
ROOT Hips
{
	OFFSET 0.000000 0.000000 0.000000
	CHANNELS 6 Xposition Yposition Zposition Zrotation Yrotation Xrotation 
	JOINT LHipJoint
	{
		OFFSET 0.000000 0.000000 0.000000
		CHANNELS 3 Zrotation Yrotation Xrotation
		JOINT LeftUpLeg
		{
			OFFSET 1.363060 -1.794630 0.839290
			CHANNELS 3 Zrotation Yrotation Xrotation
			JOINT LeftLeg
			{
				OFFSET 2.448110 -6.726130 0.000000
				CHANNELS 3 Zrotation Yrotation Xrotation
				JOINT LeftFoot
				{
					OFFSET 2.562200 -7.039590 0.000000
					CHANNELS 3 Zrotation Yrotation Xrotation
					JOINT LeftToeBase
					{
						OFFSET 0.157640 -0.433110 2.322550
						CHANNELS 3 Zrotation Yrotation Xrotation
						End Site
						{
							OFFSET 0.000000 0.000000 0.000000
						}
					}
				}
			}
		}
	}
	JOINT RHipJoint
	{
		OFFSET 0.000000 0.000000 0.000000
		CHANNELS 3 Zrotation Yrotation Xrotation
		JOINT RightUpLeg
		{
			OFFSET -1.305520 -1.794630 0.839290
			CHANNELS 3 Zrotation Yrotation Xrotation
			JOINT RightLeg
			{
				OFFSET -2.542530 -6.985550 0.000000
				CHANNELS 3 Zrotation Yrotation Xrotation
				JOINT RightFoot
				{
					OFFSET -2.568260 -7.056230 0.000000
					CHANNELS 3 Zrotation Yrotation Xrotation
					JOINT RightToeBase
					{
						OFFSET -0.164730 -0.452590 2.363150
						CHANNELS 3 Zrotation Yrotation Xrotation
						End Site
						{
							OFFSET 0.000000 0.000000 0.000000
						}
					}
				}
			}
		}
	}
	JOINT LowerBack
	{
		OFFSET 0.000000 0.000000 0.000000
		CHANNELS 3 Zrotation Yrotation Xrotation
		JOINT Spine
		{
			OFFSET 0.028270 2.035590 -0.193380
			CHANNELS 3 Zrotation Yrotation Xrotation
			JOINT Spine1
			{
				OFFSET 0.056720 2.048850 -0.042750
				CHANNELS 3 Zrotation Yrotation Xrotation
				JOINT Neck
				{
					OFFSET 0.000000 0.000000 0.000000
					CHANNELS 3 Zrotation Yrotation Xrotation
					JOINT Neck1
					{
						OFFSET -0.054170 1.746240 0.172020
						CHANNELS 3 Zrotation Yrotation Xrotation
						JOINT Head
						{
							OFFSET 0.104070 1.761360 -0.123970
							CHANNELS 3 Zrotation Yrotation Xrotation
							End Site
							{
								OFFSET 0.000000 0.000000 0.000000
							}
						}
					}
				}
				JOINT LeftShoulder
				{
					OFFSET 0.000000 0.000000 0.000000
					CHANNELS 3 Zrotation Yrotation Xrotation
					JOINT LeftArm
					{
						OFFSET 3.362410 1.200890 -0.311210
						CHANNELS 3 Zrotation Yrotation Xrotation
						JOINT LeftForeArm
						{
							OFFSET 4.983000 -0.000000 -0.000000
							CHANNELS 3 Zrotation Yrotation Xrotation
							JOINT LeftHand
							{
								OFFSET 3.483560 -0.000000 -0.000000
								CHANNELS 3 Zrotation Yrotation Xrotation
								JOINT LeftFingerBase
								{
									OFFSET 0.000000 0.000000 0.000000
									CHANNELS 3 Zrotation Yrotation Xrotation
									JOINT LeftHandIndex1
									{
										OFFSET 0.715260 -0.000000 -0.000000
										CHANNELS 3 Zrotation Yrotation Xrotation
										End Site
										{
											OFFSET 0.000000 0.000000 0.000000
										}
									}
								}
								JOINT LThumb
								{
									OFFSET 0.000000 0.000000 0.000000
									CHANNELS 3 Zrotation Yrotation Xrotation
									End Site
									{
										OFFSET 0.000000 0.000000 0.000000
									}
								}
							}
						}
					}
				}
				JOINT RightShoulder
				{
					OFFSET 0.000000 0.000000 0.000000
					CHANNELS 3 Zrotation Yrotation Xrotation
					JOINT RightArm
					{
						OFFSET -3.136600 1.374050 -0.404650
						CHANNELS 3 Zrotation Yrotation Xrotation
						JOINT RightForeArm
						{
							OFFSET -5.241900 -0.000000 -0.000000
							CHANNELS 3 Zrotation Yrotation Xrotation
							JOINT RightHand
							{
								OFFSET -3.444170 -0.000000 -0.000000
								CHANNELS 3 Zrotation Yrotation Xrotation
								JOINT RightFingerBase
								{
									OFFSET 0.000000 0.000000 0.000000
									CHANNELS 3 Zrotation Yrotation Xrotation
									JOINT RightHandIndex1
									{
										OFFSET -0.622530 -0.000000 -0.000000
										CHANNELS 3 Zrotation Yrotation Xrotation
										End Site
										{
											OFFSET 0.000000 0.000000 0.000000
										}
									}
								}
								JOINT RThumb
								{
									OFFSET 0.000000 0.000000 0.000000
									CHANNELS 3 Zrotation Yrotation Xrotation
									End Site
									{
										OFFSET 0.000000 0.000000 0.000000
									}
								}
							}
						}
					}
				}
			}
		}
	}
}
MOTION
Frames: 12
Frame Time: 0.008333
6.646980 17.806089 6.654488 -176.627206 8.626604 -175.414509 -0.866496 -0.711245 0.404468 -19.361388 0.587361 -9.177136 1.014231 7.949161 22.407313 0.444190 -1.140681 -8.775344 0.108600 -2.125300 -5.852200 -2.205684 0.141826 -2.145210 17.130610 3.986731 1.066906 -1.090646 -4.382247 11.816541 0.242773 -6.826587 -8.801846 -0.034000 1.189600 -3.270600 -0.932894 2.295022 2.404029 -0.944501 2.708357 -2.263556 -1.668462 1.700234 1.415660 -12.594711 -6.461951 -7.703948 1.208506 -6.458203 4.701724 3.242200 -3.582100 5.029600 -6.778168 3.239904 -1.737696 -76.573710 2.014564 14.458729 16.299812 -30.389820 -4.403611 1.007618 -0.239099 5.341405 -0.018613 37.851006 -0.638500 -7.125000 0.000000 0.000000 -43.143400 62.655900 -20.456600 0.915400 -2.210534 -0.066465 89.958047 -0.309802 17.104771 -16.396312 26.642277 -3.481892 -0.281495 -0.122846 -10.849778 -12.673267 22.639717 -4.846700 7.125000 0.000000 0.000000 10.372500 -7.070600 9.172300 
6.622677 17.782873 6.638681 -176.692831 7.614980 -175.800415 -0.928028 -0.694676 0.440567 -19.411237 -0.415006 -8.664830 1.019483 7.978627 22.490051 0.423568 -0.949812 -8.813182 0.157500 -2.556800 -7.047300 -2.213942 0.143041 -2.173430 17.018519 3.017552 1.525272 -1.063195 -4.314342 11.647622 0.258062 -6.983611 -8.885511 -0.015400 0.801300 -2.202300 -1.051790 1.408596 2.318857 -0.584967 1.469698 -2.484547 -0.518337 1.066291 0.720908 -13.736106 -5.742941 -5.344576 0.959636 -5.510119 4.317301 3.539100 -3.118100 4.329900 -6.764452 3.306651 -1.741487 -78.104490 4.047034 12.976655 16.879923 -31.174036 -4.734597 0.999226 -0.237127 5.154463 -0.055982 37.622982 -0.652700 -7.125000 0.000000 0.000000 -42.876100 62.482000 -20.130100 0.911058 -2.087064 -0.017504 88.465247 -1.579489 18.967817 -16.778265 26.975762 -3.595149 -0.263893 -0.138750 -11.874969 -11.797227 22.079975 -4.397600 7.125000 0.000000 0.000000 10.895000 -7.713500 9.512200 
6.609637 17.773093 6.618034 -176.563217 7.500732 -175.983109 -0.897760 -0.706067 0.394946 -19.409050 -0.761290 -8.243374 1.020604 8.001621 22.553119 0.386087 -0.543302 -8.992231 0.171900 -2.670500 -7.362700 -2.184491 0.156684 -2.229632 17.061222 2.743299 1.845758 -1.051123 -4.293702 11.559736 0.242519 -6.813393 -8.927630 -0.012700 0.726700 -1.997000 -0.642834 1.958027 2.362013 -0.803683 2.255442 -2.139225 -1.423158 1.463308 1.809690 -12.502857 -6.321500 -7.366436 0.709056 -6.280080 5.070611 3.080000 -3.528100 4.997200 -6.750933 3.271732 -1.689913 -77.177711 2.237695 15.048955 17.109051 -31.475104 -4.845531 1.002376 -0.216366 4.712236 -0.885758 38.101381 -1.173300 -7.125000 0.000000 0.000000 -44.255400 62.596100 -21.033700 0.962810 -2.286603 -0.047687 89.425453 -0.145467 16.659531 -16.949309 27.352300 -3.678150 -0.218706 -0.147758 -12.441393 -9.850585 21.127429 -3.508700 7.125000 0.000000 0.000000 12.075100 -8.841200 10.313700 
6.608945 17.775662 6.614083 -176.397516 7.555211 -176.021955 -0.931893 -0.690924 0.425152 -19.187954 -0.841967 -8.129267 1.013607 7.991170 22.519112 0.379570 -0.475844 -9.010479 0.095200 -1.990100 -5.478400 -2.220999 0.138891 -2.203761 17.296857 2.864997 1.807857 -1.067921 -4.366239 11.782842 0.232459 -6.743130 -9.098549 -0.014400 0.774300 -2.128100 -0.764824 1.535091 2.127419 -0.539688 1.641113 -2.311859 -0.500947 1.140919 1.359738 -13.516448 -5.758166 -5.984886 0.823014 -5.481035 5.086819 3.420000 -3.150700 4.668800 -6.727045 3.321205 -1.708213 -78.115526 3.614722 14.255499 17.720713 -32.267340 -5.188709 0.992256 -0.204822 4.176040 -0.983325 38.351572 -1.232800 -7.125000 0.000000 0.000000 -44.665300 62.752200 -21.433300 0.944980 -2.204854 -0.028353 88.399570 -0.789896 17.738846 -16.625246 26.862186 -3.537298 -0.241189 -0.088020 -12.844363 -9.033455 23.516549 -3.533100 7.125000 0.000000 0.000000 12.617100 -6.636700 11.360200 
6.618429 17.784849 6.634927 -176.496343 7.157103 -175.802574 -0.927154 -0.700206 0.412899 -19.135603 -0.734454 -8.593492 1.035199 8.013760 22.594759 0.432635 -1.077392 -8.702733 0.058800 -1.565200 -4.305500 -2.222501 0.136535 -2.194875 17.274839 2.738781 1.566910 -1.059177 -4.335977 11.695580 0.250345 -6.990876 -9.219668 -0.008600 0.600400 -1.649900 -1.053388 1.434235 2.025972 -0.530693 1.502641 -2.347461 -0.325791 1.072508 1.309193 -13.448995 -5.746827 -5.930840 0.797377 -5.478976 5.441365 3.384000 -3.172700 4.765700 -6.723583 3.305545 -1.708425 -78.081206 3.459374 14.705097 18.067203 -32.695608 -5.381791 0.985415 -0.198452 3.721094 -0.879189 38.493889 -1.166600 -7.125000 0.000000 0.000000 -44.755800 62.886700 -21.625900 0.961508 -2.206938 -0.022267 88.364138 -0.962163 19.687836 -16.969704 27.243792 -3.684265 -0.273875 -0.161720 -11.306212 -13.985830 21.415450 -5.111900 7.125000 0.000000 0.000000 9.507100 -8.103600 8.188600 
6.615466 17.774575 6.635816 -176.720159 7.158151 -176.105951 -0.893673 -0.707561 0.391324 -19.467389 -0.632907 -8.246952 1.032193 8.004997 22.566759 0.424787 -0.979334 -8.783975 0.125200 -2.281100 -6.283300 -2.170568 0.160639 -2.238015 16.936823 2.534856 1.744667 -1.070254 -4.413135 11.896836 0.218719 -6.655316 -9.219757 -0.002000 0.286500 -0.787100 -1.053063 1.987145 2.379779 -0.826602 2.300270 -2.116596 -1.267834 1.485232 1.819692 -12.018030 -6.273008 -6.963805 0.461607 -6.323356 5.982204 2.879500 -3.601900 5.161000 -6.732417 3.242327 -1.663026 -76.979646 1.951802 16.540472 18.175111 -32.805847 -5.419615 0.986124 -0.187651 3.405047 -1.197295 39.003650 -1.379700 -7.125000 0.000000 0.000000 -45.737900 63.157700 -22.492900 0.985808 -2.311493 -0.016029 89.468786 -0.292843 18.972839 -17.242672 27.674321 -3.823613 -0.284316 -0.212256 -10.076833 -16.569350 19.655017 -5.654700 7.125000 0.000000 0.000000 7.800600 -9.518100 6.465100 
6.598573 17.779712 6.611810 -176.842541 7.502080 -176.246643 -0.897991 -0.703668 0.396667 -19.767896 -0.912531 -7.688565 1.015199 7.988881 22.508271 0.400593 -0.573879 -9.206797 0.102200 -2.061700 -5.676300 -2.151377 0.165641 -2.244455 16.649860 2.595833 1.773801 -1.090350 -4.493062 12.120824 0.172944 -6.158685 -9.245299 -0.004400 0.426200 -1.171200 -0.978386 2.031457 1.983818 -0.866634 2.371813 -2.066888 -1.409681 1.518055 2.126543 -11.860021 -6.113359 -6.442331 0.216419 -6.162755 6.030271 2.812800 -3.524100 5.001000 -6.742715 3.274671 -1.634121 -77.012626 1.975752 16.598227 18.491782 -33.205382 -5.593434 0.987247 -0.182485 3.145728 -1.232680 39.285645 -1.410700 -7.125000 0.000000 0.000000 -46.163600 63.345800 -22.949000 0.985296 -2.347318 0.005782 89.362122 -0.171191 18.226629 -17.493462 28.034090 -3.910179 -0.235212 -0.204351 -12.055961 -12.926345 19.809335 -4.388200 7.125000 0.000000 0.000000 10.118700 -9.786600 8.386800 
6.604204 17.766375 6.627320 -176.948545 7.083601 -176.269351 -0.885675 -0.708933 0.386248 -19.814402 -0.843306 -7.891348 1.010086 7.955710 22.415354 0.414977 -0.885059 -8.819030 0.104300 -2.082500 -5.733700 -2.130864 0.167941 -2.241732 16.561396 2.443056 1.666623 -1.099436 -4.572415 12.342910 0.173949 -6.315501 -9.600766 -0.012100 0.710700 -1.953100 -1.003989 1.906242 1.888192 -0.928378 2.222536 -2.062104 -1.656725 1.447907 2.171463 -11.617311 -6.022357 -6.028882 0.234351 -6.121749 6.170758 2.793900 -3.502800 4.931700 -6.756349 3.279325 -1.621496 -76.722580 1.853682 17.020023 18.777288 -33.556304 -5.765729 0.984774 -0.183019 2.730000 -0.987860 39.063229 -1.247300 -7.125000 0.000000 0.000000 -45.635800 63.264200 -22.543700 0.952638 -2.344136 0.031541 89.626225 -0.214134 19.076307 -17.173442 27.645218 -3.801808 -0.284662 -0.198800 -10.971142 -15.822340 20.438150 -5.579800 7.125000 0.000000 0.000000 8.313500 -8.831600 7.014800 
6.591855 17.762128 6.599066 -177.050701 7.520358 -176.533540 -0.939980 -0.688483 0.460066 -20.007931 -0.760641 -7.599028 1.008699 7.965508 22.443328 0.386611 -0.516319 -9.089758 0.048300 -1.418500 -3.901200 -2.153507 0.167969 -2.222523 16.374701 2.445012 2.009599 -1.092711 -4.503080 12.184123 0.164377 -6.086321 -9.342539 -0.004600 0.436200 -1.198500 -1.314803 1.279126 1.525146 -0.616794 1.316050 -2.418655 -0.487137 0.978265 1.160294 -13.098763 -5.062158 -3.076567 0.338632 -4.846311 5.775306 3.308200 -2.858900 4.112200 -6.754723 3.361327 -1.660606 -78.086035 4.503543 15.114966 19.369763 -34.281467 -6.129614 0.975176 -0.185592 2.493612 -0.723072 38.813014 -1.068100 -7.125000 0.000000 0.000000 -45.046200 63.168200 -22.090100 0.900218 -2.149868 0.083747 88.245599 -1.771853 21.318597 -17.100851 27.390580 -3.735718 -0.286051 -0.179498 -11.595986 -14.858714 21.142001 -5.382500 7.125000 0.000000 0.000000 8.954800 -8.260500 7.672200 
6.605883 17.767166 6.614280 -177.106216 7.117404 -176.416225 -0.880989 -0.710590 0.392133 -19.978074 -0.569908 -7.734089 1.006897 7.931813 22.347365 0.433380 -1.074633 -8.768849 0.075500 -1.773100 -4.879100 -2.117653 0.182972 -2.267758 16.394387 2.369459 1.889599 -1.095093 -4.568016 12.328623 0.186048 -6.403068 -9.466442 -0.000000 0.041600 -0.114400 -1.168681 1.916368 1.812343 -0.965254 2.254994 -2.001628 -1.684007 1.460955 2.406573 -11.714378 -5.888317 -6.351953 0.482220 -5.909640 6.841759 2.888200 -3.428800 5.204800 -6.760836 3.287970 -1.612786 -76.596477 1.465917 17.603760 19.352224 -34.256694 -6.119608 0.977649 -0.184031 2.186838 -0.655170 38.587063 -1.021600 -7.125000 0.000000 0.000000 -44.681000 63.027500 -21.727900 0.945464 -2.387270 0.022178 89.822360 0.414721 18.853009 -16.971204 27.431101 -3.724820 -0.284822 -0.176363 -10.894191 -15.329543 21.112475 -5.558200 7.125000 0.000000 0.000000 8.653000 -8.231400 7.412300 
6.599066 17.774871 6.587804 -176.953210 7.311895 -176.423986 -0.876070 -0.705316 0.391852 -19.926397 -0.891833 -7.295567 0.995659 7.928140 22.334857 0.396122 -0.612635 -9.056037 0.067100 -1.671000 -4.597300 -2.115259 0.176759 -2.272578 16.502249 2.388128 2.026865 -1.084917 -4.528076 12.204387 0.187772 -6.418512 -9.476922 -0.006600 0.523200 -1.437600 -0.791370 1.899648 1.274020 -0.982340 2.238514 -1.942107 -1.935831 1.454232 2.844947 -11.625430 -5.777391 -6.046262 0.391943 -5.788950 7.017999 2.877100 -3.373900 5.144800 -6.772608 3.321471 -1.587733 -76.511164 1.385523 17.454083 19.659782 -34.642874 -6.312283 0.980338 -0.187995 2.196077 -0.610322 38.353215 -0.990300 -7.125000 0.000000 0.000000 -44.331000 62.873600 -21.363600 0.945135 -2.430576 0.050045 89.772938 0.213139 19.421350 -17.235681 27.809264 -3.833247 -0.277278 -0.181459 -11.274917 -15.028519 21.168289 -5.458800 7.125000 0.000000 0.000000 8.842900 -8.207400 7.583200 
6.609538 17.768845 6.603611 -176.772234 6.790833 -176.254357 -0.834865 -0.717686 0.355821 -19.638604 -0.801829 -7.687608 0.997542 7.904428 22.281541 0.411685 -0.997143 -8.522846 0.058500 -1.561300 -4.294600 -2.096428 0.168040 -2.272526 16.761269 2.153732 1.874133 -1.075039 -4.522538 12.166175 0.203057 -6.677361 -9.722641 -0.014500 0.777100 -2.135700 -0.225414 1.747779 0.931111 -1.135759 2.077534 -1.807113 -2.857722 1.404817 3.465450 -10.931745 -5.801846 -6.450549 0.384624 -5.920496 7.268917 2.737400 -3.430100 5.265900 -6.808002 3.331451 -1.564885 -75.668873 0.569242 17.731337 19.932867 -34.962203 -6.465636 0.984992 -0.184418 2.014791 -0.745587 38.579676 -1.082300 -7.125000 0.000000 0.000000 -44.765000 62.997600 -21.746300 0.932271 -2.508005 0.067746 90.463178 0.696048 19.397429 -17.379319 28.103548 -3.904937 -0.270239 -0.183285 -11.692506 -14.365998 21.393287 -5.258100 7.125000 0.000000 0.000000 9.267800 -8.059900 7.984800 
